<mxfile host="app.diagrams.net" modified="2023-12-10T14:54:30.661Z" agent="Mozilla/5.0 (Windows NT 10.0; Win64; x64) AppleWebKit/537.36 (KHTML, like Gecko) Chrome/119.0.0.0 Safari/537.36" etag="JZlSGox9ydLDvzcropEJ" version="22.1.7" type="device">
  <diagram name="Page-1" id="2YBvvXClWsGukQMizWep">
    <mxGraphModel dx="794" dy="424" grid="1" gridSize="10" guides="1" tooltips="1" connect="1" arrows="1" fold="1" page="1" pageScale="1" pageWidth="850" pageHeight="1100" math="0" shadow="0">
      <root>
        <mxCell id="0" />
        <mxCell id="1" parent="0" />
        <mxCell id="XoBrMZfIJyuBFm6Irr6B-1" value="Sistema" style="shape=umlLifeline;perimeter=lifelinePerimeter;whiteSpace=wrap;html=1;container=0;dropTarget=0;collapsible=0;recursiveResize=0;outlineConnect=0;portConstraint=eastwest;newEdgeStyle={&quot;edgeStyle&quot;:&quot;elbowEdgeStyle&quot;,&quot;elbow&quot;:&quot;vertical&quot;,&quot;curved&quot;:0,&quot;rounded&quot;:0};" parent="1" vertex="1">
          <mxGeometry x="340" y="50" width="100" height="330" as="geometry" />
        </mxCell>
        <mxCell id="XoBrMZfIJyuBFm6Irr6B-9" value="" style="shape=umlLifeline;perimeter=lifelinePerimeter;whiteSpace=wrap;html=1;container=1;dropTarget=0;collapsible=0;recursiveResize=0;outlineConnect=0;portConstraint=eastwest;newEdgeStyle={&quot;curved&quot;:0,&quot;rounded&quot;:0};participant=umlActor;" parent="1" vertex="1">
          <mxGeometry x="55" y="46" width="20" height="284" as="geometry" />
        </mxCell>
        <mxCell id="XoBrMZfIJyuBFm6Irr6B-32" value="" style="html=1;points=[[0,0,0,0,5],[0,1,0,0,-5],[1,0,0,0,5],[1,1,0,0,-5]];perimeter=orthogonalPerimeter;outlineConnect=0;targetShapes=umlLifeline;portConstraint=eastwest;newEdgeStyle={&quot;curved&quot;:0,&quot;rounded&quot;:0};" parent="XoBrMZfIJyuBFm6Irr6B-9" vertex="1">
          <mxGeometry x="5" y="74" width="10" height="40" as="geometry" />
        </mxCell>
        <mxCell id="XoBrMZfIJyuBFm6Irr6B-10" value="ADM" style="text;align=center;fontStyle=1;verticalAlign=middle;spacingLeft=3;spacingRight=3;strokeColor=none;rotatable=0;points=[[0,0.5],[1,0.5]];portConstraint=eastwest;html=1;" parent="1" vertex="1">
          <mxGeometry x="180" y="20" width="80" height="26" as="geometry" />
        </mxCell>
        <mxCell id="XoBrMZfIJyuBFm6Irr6B-12" value="" style="shape=umlLifeline;perimeter=lifelinePerimeter;whiteSpace=wrap;html=1;container=1;dropTarget=0;collapsible=0;recursiveResize=0;outlineConnect=0;portConstraint=eastwest;newEdgeStyle={&quot;curved&quot;:0,&quot;rounded&quot;:0};participant=umlActor;" parent="1" vertex="1">
          <mxGeometry x="205" y="46" width="20" height="274" as="geometry" />
        </mxCell>
        <mxCell id="XoBrMZfIJyuBFm6Irr6B-51" value="" style="html=1;points=[[0,0,0,0,5],[0,1,0,0,-5],[1,0,0,0,5],[1,1,0,0,-5]];perimeter=orthogonalPerimeter;outlineConnect=0;targetShapes=umlLifeline;portConstraint=eastwest;newEdgeStyle={&quot;curved&quot;:0,&quot;rounded&quot;:0};" parent="XoBrMZfIJyuBFm6Irr6B-12" vertex="1">
          <mxGeometry x="5" y="128" width="10" height="40" as="geometry" />
        </mxCell>
        <mxCell id="XoBrMZfIJyuBFm6Irr6B-14" value="Redator" style="text;align=center;fontStyle=1;verticalAlign=middle;spacingLeft=3;spacingRight=3;strokeColor=none;rotatable=0;points=[[0,0.5],[1,0.5]];portConstraint=eastwest;html=1;" parent="1" vertex="1">
          <mxGeometry x="30" y="20" width="80" height="26" as="geometry" />
        </mxCell>
        <mxCell id="XoBrMZfIJyuBFm6Irr6B-20" value="banco de dados" style="shape=umlLifeline;perimeter=lifelinePerimeter;whiteSpace=wrap;html=1;container=0;dropTarget=0;collapsible=0;recursiveResize=0;outlineConnect=0;portConstraint=eastwest;newEdgeStyle={&quot;edgeStyle&quot;:&quot;elbowEdgeStyle&quot;,&quot;elbow&quot;:&quot;vertical&quot;,&quot;curved&quot;:0,&quot;rounded&quot;:0};" parent="1" vertex="1">
          <mxGeometry x="520" y="40" width="100" height="350" as="geometry" />
        </mxCell>
        <mxCell id="aM9ryv3xv72pqoxQDRHE-7" value="publica artigos" style="html=1;verticalAlign=bottom;endArrow=block;edgeStyle=elbowEdgeStyle;elbow=vertical;curved=0;rounded=0;" parent="XoBrMZfIJyuBFm6Irr6B-20" edge="1">
          <mxGeometry relative="1" as="geometry">
            <mxPoint x="-305" y="214" as="sourcePoint" />
            <Array as="points">
              <mxPoint x="-220" y="214" />
            </Array>
            <mxPoint x="-135" y="214" as="targetPoint" />
          </mxGeometry>
        </mxCell>
        <mxCell id="aM9ryv3xv72pqoxQDRHE-8" value="artigo existe" style="html=1;verticalAlign=bottom;endArrow=open;dashed=1;endSize=8;edgeStyle=elbowEdgeStyle;elbow=horizontal;curved=0;rounded=0;" parent="XoBrMZfIJyuBFm6Irr6B-20" edge="1">
          <mxGeometry relative="1" as="geometry">
            <mxPoint x="-125" y="334" as="targetPoint" />
            <Array as="points">
              <mxPoint x="-40" y="334" />
            </Array>
            <mxPoint x="35" y="334" as="sourcePoint" />
          </mxGeometry>
        </mxCell>
        <mxCell id="XoBrMZfIJyuBFm6Irr6B-2" value="" style="html=1;points=[];perimeter=orthogonalPerimeter;outlineConnect=0;targetShapes=umlLifeline;portConstraint=eastwest;newEdgeStyle={&quot;edgeStyle&quot;:&quot;elbowEdgeStyle&quot;,&quot;elbow&quot;:&quot;vertical&quot;,&quot;curved&quot;:0,&quot;rounded&quot;:0};" parent="XoBrMZfIJyuBFm6Irr6B-20" vertex="1">
          <mxGeometry x="-135" y="190" width="10" height="80" as="geometry" />
        </mxCell>
        <mxCell id="XoBrMZfIJyuBFm6Irr6B-6" value="" style="html=1;points=[[0,0,0,0,5],[0,1,0,0,-5],[1,0,0,0,5],[1,1,0,0,-5]];perimeter=orthogonalPerimeter;outlineConnect=0;targetShapes=umlLifeline;portConstraint=eastwest;newEdgeStyle={&quot;curved&quot;:0,&quot;rounded&quot;:0};" parent="XoBrMZfIJyuBFm6Irr6B-20" vertex="1">
          <mxGeometry x="-460" y="184" width="10" height="40" as="geometry" />
        </mxCell>
        <mxCell id="XoBrMZfIJyuBFm6Irr6B-13" value="" style="html=1;points=[[0,0,0,0,5],[0,1,0,0,-5],[1,0,0,0,5],[1,1,0,0,-5]];perimeter=orthogonalPerimeter;outlineConnect=0;targetShapes=umlLifeline;portConstraint=eastwest;newEdgeStyle={&quot;curved&quot;:0,&quot;rounded&quot;:0};" parent="XoBrMZfIJyuBFm6Irr6B-20" vertex="1">
          <mxGeometry x="-310" y="194" width="10" height="40" as="geometry" />
        </mxCell>
        <mxCell id="XoBrMZfIJyuBFm6Irr6B-28" value="" style="html=1;points=[[0,0,0,0,5],[0,1,0,0,-5],[1,0,0,0,5],[1,1,0,0,-5]];perimeter=orthogonalPerimeter;outlineConnect=0;targetShapes=umlLifeline;portConstraint=eastwest;newEdgeStyle={&quot;curved&quot;:0,&quot;rounded&quot;:0};" parent="XoBrMZfIJyuBFm6Irr6B-20" vertex="1">
          <mxGeometry x="-310" y="254" width="10" height="40" as="geometry" />
        </mxCell>
        <mxCell id="XoBrMZfIJyuBFm6Irr6B-16" value="2: cria artigos" style="html=1;verticalAlign=bottom;endArrow=block;edgeStyle=elbowEdgeStyle;elbow=vertical;curved=0;rounded=0;" parent="XoBrMZfIJyuBFm6Irr6B-20" source="XoBrMZfIJyuBFm6Irr6B-6" edge="1">
          <mxGeometry relative="1" as="geometry">
            <mxPoint x="-445" y="204" as="sourcePoint" />
            <Array as="points">
              <mxPoint x="-410" y="204" />
            </Array>
            <mxPoint x="-315" y="204" as="targetPoint" />
          </mxGeometry>
        </mxCell>
        <mxCell id="XoBrMZfIJyuBFm6Irr6B-17" value="artigo cadastrado" style="html=1;verticalAlign=bottom;endArrow=block;edgeStyle=elbowEdgeStyle;elbow=vertical;curved=0;rounded=0;" parent="XoBrMZfIJyuBFm6Irr6B-20" edge="1">
          <mxGeometry relative="1" as="geometry">
            <mxPoint x="40" y="254" as="sourcePoint" />
            <Array as="points">
              <mxPoint x="-35" y="254" />
            </Array>
            <mxPoint x="-125" y="254" as="targetPoint" />
          </mxGeometry>
        </mxCell>
        <mxCell id="XoBrMZfIJyuBFm6Irr6B-18" value="cadastra artigo" style="html=1;verticalAlign=bottom;endArrow=block;edgeStyle=elbowEdgeStyle;elbow=vertical;curved=0;rounded=0;" parent="XoBrMZfIJyuBFm6Irr6B-20" edge="1">
          <mxGeometry relative="1" as="geometry">
            <mxPoint x="-125" y="224.5" as="sourcePoint" />
            <Array as="points">
              <mxPoint x="-125" y="224.5" />
            </Array>
            <mxPoint x="40" y="224" as="targetPoint" />
          </mxGeometry>
        </mxCell>
        <mxCell id="XoBrMZfIJyuBFm6Irr6B-23" value="3: editar / excluir artigo" style="html=1;verticalAlign=bottom;endArrow=block;edgeStyle=elbowEdgeStyle;elbow=vertical;curved=0;rounded=0;" parent="XoBrMZfIJyuBFm6Irr6B-20" edge="1">
          <mxGeometry relative="1" as="geometry">
            <mxPoint x="-455" y="274" as="sourcePoint" />
            <Array as="points">
              <mxPoint x="-415" y="274" />
            </Array>
            <mxPoint x="-315" y="274" as="targetPoint" />
          </mxGeometry>
        </mxCell>
        <mxCell id="XoBrMZfIJyuBFm6Irr6B-24" value="aprovar alteração" style="html=1;verticalAlign=bottom;endArrow=block;edgeStyle=elbowEdgeStyle;elbow=vertical;curved=0;rounded=0;entryX=0;entryY=0;entryDx=0;entryDy=5;entryPerimeter=0;" parent="XoBrMZfIJyuBFm6Irr6B-20" source="XoBrMZfIJyuBFm6Irr6B-28" target="XoBrMZfIJyuBFm6Irr6B-30" edge="1">
          <mxGeometry relative="1" as="geometry">
            <mxPoint x="-275" y="284" as="sourcePoint" />
            <Array as="points" />
            <mxPoint x="-150" y="284" as="targetPoint" />
          </mxGeometry>
        </mxCell>
        <mxCell id="XoBrMZfIJyuBFm6Irr6B-25" value="verifica se o artigo existe" style="html=1;verticalAlign=bottom;endArrow=block;edgeStyle=elbowEdgeStyle;elbow=vertical;curved=0;rounded=0;" parent="XoBrMZfIJyuBFm6Irr6B-20" edge="1">
          <mxGeometry relative="1" as="geometry">
            <mxPoint x="-125" y="304" as="sourcePoint" />
            <Array as="points" />
            <mxPoint x="40" y="304" as="targetPoint" />
          </mxGeometry>
        </mxCell>
        <mxCell id="XoBrMZfIJyuBFm6Irr6B-26" value="altera artigo" style="html=1;verticalAlign=bottom;endArrow=block;edgeStyle=elbowEdgeStyle;elbow=vertical;curved=0;rounded=0;" parent="XoBrMZfIJyuBFm6Irr6B-20" edge="1">
          <mxGeometry relative="1" as="geometry">
            <mxPoint x="-125" y="364" as="sourcePoint" />
            <Array as="points" />
            <mxPoint x="40" y="364" as="targetPoint" />
          </mxGeometry>
        </mxCell>
        <mxCell id="XoBrMZfIJyuBFm6Irr6B-27" value="" style="html=1;points=[[0,0,0,0,5],[0,1,0,0,-5],[1,0,0,0,5],[1,1,0,0,-5]];perimeter=orthogonalPerimeter;outlineConnect=0;targetShapes=umlLifeline;portConstraint=eastwest;newEdgeStyle={&quot;curved&quot;:0,&quot;rounded&quot;:0};" parent="XoBrMZfIJyuBFm6Irr6B-20" vertex="1">
          <mxGeometry x="-460" y="264" width="10" height="30" as="geometry" />
        </mxCell>
        <mxCell id="XoBrMZfIJyuBFm6Irr6B-30" value="" style="html=1;points=[[0,0,0,0,5],[0,1,0,0,-5],[1,0,0,0,5],[1,1,0,0,-5]];perimeter=orthogonalPerimeter;outlineConnect=0;targetShapes=umlLifeline;portConstraint=eastwest;newEdgeStyle={&quot;curved&quot;:0,&quot;rounded&quot;:0};" parent="XoBrMZfIJyuBFm6Irr6B-20" vertex="1">
          <mxGeometry x="-135" y="278" width="10" height="96" as="geometry" />
        </mxCell>
        <mxCell id="XoBrMZfIJyuBFm6Irr6B-53" value="" style="html=1;points=[];perimeter=orthogonalPerimeter;outlineConnect=0;targetShapes=umlLifeline;portConstraint=eastwest;newEdgeStyle={&quot;edgeStyle&quot;:&quot;elbowEdgeStyle&quot;,&quot;elbow&quot;:&quot;vertical&quot;,&quot;curved&quot;:0,&quot;rounded&quot;:0};" parent="XoBrMZfIJyuBFm6Irr6B-20" vertex="1">
          <mxGeometry x="45" y="70" width="10" height="50" as="geometry" />
        </mxCell>
        <mxCell id="XoBrMZfIJyuBFm6Irr6B-72" value="" style="html=1;points=[];perimeter=orthogonalPerimeter;outlineConnect=0;targetShapes=umlLifeline;portConstraint=eastwest;newEdgeStyle={&quot;edgeStyle&quot;:&quot;elbowEdgeStyle&quot;,&quot;elbow&quot;:&quot;vertical&quot;,&quot;curved&quot;:0,&quot;rounded&quot;:0};" parent="XoBrMZfIJyuBFm6Irr6B-20" vertex="1">
          <mxGeometry x="45" y="130" width="10" height="50" as="geometry" />
        </mxCell>
        <mxCell id="XoBrMZfIJyuBFm6Irr6B-21" value="" style="html=1;points=[];perimeter=orthogonalPerimeter;outlineConnect=0;targetShapes=umlLifeline;portConstraint=eastwest;newEdgeStyle={&quot;edgeStyle&quot;:&quot;elbowEdgeStyle&quot;,&quot;elbow&quot;:&quot;vertical&quot;,&quot;curved&quot;:0,&quot;rounded&quot;:0};" parent="1" vertex="1">
          <mxGeometry x="565" y="240" width="10" height="80" as="geometry" />
        </mxCell>
        <mxCell id="XoBrMZfIJyuBFm6Irr6B-31" value="" style="html=1;points=[[0,0,0,0,5],[0,1,0,0,-5],[1,0,0,0,5],[1,1,0,0,-5]];perimeter=orthogonalPerimeter;outlineConnect=0;targetShapes=umlLifeline;portConstraint=eastwest;newEdgeStyle={&quot;curved&quot;:0,&quot;rounded&quot;:0};" parent="1" vertex="1">
          <mxGeometry x="565" y="336" width="10" height="94" as="geometry" />
        </mxCell>
        <mxCell id="XoBrMZfIJyuBFm6Irr6B-52" value="1: fazer login" style="html=1;verticalAlign=bottom;endArrow=block;edgeStyle=elbowEdgeStyle;elbow=vertical;curved=0;rounded=0;" parent="1" target="XoBrMZfIJyuBFm6Irr6B-53" edge="1">
          <mxGeometry relative="1" as="geometry">
            <mxPoint x="70" y="130" as="sourcePoint" />
            <Array as="points">
              <mxPoint x="110" y="130" />
            </Array>
            <mxPoint x="560" y="130" as="targetPoint" />
          </mxGeometry>
        </mxCell>
        <mxCell id="XoBrMZfIJyuBFm6Irr6B-73" value="1:fazer login" style="html=1;verticalAlign=bottom;endArrow=block;edgeStyle=elbowEdgeStyle;elbow=vertical;curved=0;rounded=0;" parent="1" target="XoBrMZfIJyuBFm6Irr6B-72" edge="1">
          <mxGeometry relative="1" as="geometry">
            <mxPoint x="220" y="179" as="sourcePoint" />
            <Array as="points">
              <mxPoint x="245" y="179.25" />
            </Array>
            <mxPoint x="560" y="179" as="targetPoint" />
          </mxGeometry>
        </mxCell>
        <mxCell id="kbUPLPpDJqJ9EiyGVXxt-1" value="entrar como redator" style="html=1;verticalAlign=bottom;endArrow=block;edgeStyle=elbowEdgeStyle;elbow=vertical;curved=0;rounded=0;" edge="1" parent="1" target="XoBrMZfIJyuBFm6Irr6B-32">
          <mxGeometry relative="1" as="geometry">
            <mxPoint x="565" y="150" as="sourcePoint" />
            <Array as="points">
              <mxPoint x="490" y="150" />
            </Array>
            <mxPoint x="400" y="150" as="targetPoint" />
          </mxGeometry>
        </mxCell>
        <mxCell id="kbUPLPpDJqJ9EiyGVXxt-2" value="entrar como administrador" style="html=1;verticalAlign=bottom;endArrow=block;edgeStyle=elbowEdgeStyle;elbow=vertical;curved=0;rounded=0;" edge="1" parent="1" target="XoBrMZfIJyuBFm6Irr6B-51">
          <mxGeometry relative="1" as="geometry">
            <mxPoint x="565" y="200" as="sourcePoint" />
            <Array as="points">
              <mxPoint x="490" y="200" />
            </Array>
            <mxPoint x="400" y="200" as="targetPoint" />
          </mxGeometry>
        </mxCell>
      </root>
    </mxGraphModel>
  </diagram>
</mxfile>
